<mxfile host="app.diagrams.net" modified="2020-09-07T15:21:29.122Z" agent="5.0 (Windows)" etag="0qG7oa-dMuZi_-D4IfM5" version="13.6.6" type="github">
  <diagram id="CTGaTTQSNkZc-AOhuwzD" name="Page-1">
    <mxGraphModel dx="1410" dy="772" grid="1" gridSize="10" guides="1" tooltips="1" connect="1" arrows="1" fold="1" page="1" pageScale="1" pageWidth="827" pageHeight="1169" math="0" shadow="0">
      <root>
        <mxCell id="0" />
        <mxCell id="1" parent="0" />
        <mxCell id="1osh8KK9zgM9wE_HcQ0h-1" value="RPC PING" style="rounded=0;whiteSpace=wrap;html=1;" vertex="1" parent="1">
          <mxGeometry x="100" y="585" width="120" height="60" as="geometry" />
        </mxCell>
        <mxCell id="1osh8KK9zgM9wE_HcQ0h-2" value="RPC STORE" style="rounded=0;whiteSpace=wrap;html=1;" vertex="1" parent="1">
          <mxGeometry x="240" y="585" width="120" height="60" as="geometry" />
        </mxCell>
        <mxCell id="1osh8KK9zgM9wE_HcQ0h-3" value="RPC FIND_NODE" style="rounded=0;whiteSpace=wrap;html=1;" vertex="1" parent="1">
          <mxGeometry x="390" y="585" width="120" height="60" as="geometry" />
        </mxCell>
        <mxCell id="1osh8KK9zgM9wE_HcQ0h-4" value="RPC FIND_VALUE" style="rounded=0;whiteSpace=wrap;html=1;" vertex="1" parent="1">
          <mxGeometry x="530" y="585" width="120" height="60" as="geometry" />
        </mxCell>
        <mxCell id="1osh8KK9zgM9wE_HcQ0h-5" value="" style="endArrow=classic;html=1;" edge="1" parent="1" source="1osh8KK9zgM9wE_HcQ0h-3" target="1osh8KK9zgM9wE_HcQ0h-6">
          <mxGeometry width="50" height="50" relative="1" as="geometry">
            <mxPoint x="390" y="390" as="sourcePoint" />
            <mxPoint x="210" y="430" as="targetPoint" />
          </mxGeometry>
        </mxCell>
        <mxCell id="1osh8KK9zgM9wE_HcQ0h-6" value="Node Lookup" style="rounded=0;whiteSpace=wrap;html=1;" vertex="1" parent="1">
          <mxGeometry x="380" y="340" width="120" height="60" as="geometry" />
        </mxCell>
      </root>
    </mxGraphModel>
  </diagram>
</mxfile>
